<mxfile host="app.diagrams.net" agent="Mozilla/5.0 (Windows NT 10.0; Win64; x64) AppleWebKit/537.36 (KHTML, like Gecko) Chrome/127.0.0.0 Safari/537.36" version="24.7.7">
  <diagram name="PÃ¡gina-1" id="QkfXeRa_IOI33sMzNhDn">
    <mxGraphModel dx="2096" dy="548" grid="1" gridSize="10" guides="1" tooltips="1" connect="1" arrows="1" fold="1" page="1" pageScale="1" pageWidth="827" pageHeight="1169" math="0" shadow="0">
      <root>
        <mxCell id="0" />
        <mxCell id="1" parent="0" />
        <mxCell id="uBUwtSgOL257emp5PNlk-26" style="edgeStyle=orthogonalEdgeStyle;rounded=0;orthogonalLoop=1;jettySize=auto;html=1;exitX=0.5;exitY=1;exitDx=0;exitDy=0;entryX=0.5;entryY=0;entryDx=0;entryDy=0;" edge="1" parent="1" source="uBUwtSgOL257emp5PNlk-1" target="uBUwtSgOL257emp5PNlk-9">
          <mxGeometry relative="1" as="geometry" />
        </mxCell>
        <mxCell id="uBUwtSgOL257emp5PNlk-1" value="doctype html" style="rounded=0;whiteSpace=wrap;html=1;shadow=1;" vertex="1" parent="1">
          <mxGeometry x="240" y="120" width="120" height="60" as="geometry" />
        </mxCell>
        <mxCell id="uBUwtSgOL257emp5PNlk-30" style="edgeStyle=orthogonalEdgeStyle;rounded=0;orthogonalLoop=1;jettySize=auto;html=1;exitX=0;exitY=0.5;exitDx=0;exitDy=0;entryX=0.5;entryY=0;entryDx=0;entryDy=0;" edge="1" parent="1" source="uBUwtSgOL257emp5PNlk-7" target="uBUwtSgOL257emp5PNlk-10">
          <mxGeometry relative="1" as="geometry" />
        </mxCell>
        <mxCell id="uBUwtSgOL257emp5PNlk-31" style="edgeStyle=orthogonalEdgeStyle;rounded=0;orthogonalLoop=1;jettySize=auto;html=1;exitX=0;exitY=1;exitDx=0;exitDy=0;entryX=0.5;entryY=0;entryDx=0;entryDy=0;" edge="1" parent="1" source="uBUwtSgOL257emp5PNlk-7" target="uBUwtSgOL257emp5PNlk-13">
          <mxGeometry relative="1" as="geometry" />
        </mxCell>
        <mxCell id="uBUwtSgOL257emp5PNlk-33" style="edgeStyle=orthogonalEdgeStyle;rounded=0;orthogonalLoop=1;jettySize=auto;html=1;exitX=1;exitY=1;exitDx=0;exitDy=0;entryX=0.5;entryY=0;entryDx=0;entryDy=0;" edge="1" parent="1" source="uBUwtSgOL257emp5PNlk-7" target="uBUwtSgOL257emp5PNlk-14">
          <mxGeometry relative="1" as="geometry" />
        </mxCell>
        <mxCell id="uBUwtSgOL257emp5PNlk-34" style="edgeStyle=orthogonalEdgeStyle;rounded=0;orthogonalLoop=1;jettySize=auto;html=1;exitX=1;exitY=0.5;exitDx=0;exitDy=0;entryX=0.5;entryY=0;entryDx=0;entryDy=0;" edge="1" parent="1" source="uBUwtSgOL257emp5PNlk-7" target="uBUwtSgOL257emp5PNlk-12">
          <mxGeometry relative="1" as="geometry" />
        </mxCell>
        <mxCell id="uBUwtSgOL257emp5PNlk-7" value="head" style="rounded=0;whiteSpace=wrap;html=1;shadow=1;" vertex="1" parent="1">
          <mxGeometry x="-40" y="260" width="120" height="60" as="geometry" />
        </mxCell>
        <mxCell id="uBUwtSgOL257emp5PNlk-35" style="edgeStyle=orthogonalEdgeStyle;rounded=0;orthogonalLoop=1;jettySize=auto;html=1;exitX=0;exitY=0.5;exitDx=0;exitDy=0;entryX=0.5;entryY=0;entryDx=0;entryDy=0;" edge="1" parent="1" source="uBUwtSgOL257emp5PNlk-8" target="uBUwtSgOL257emp5PNlk-17">
          <mxGeometry relative="1" as="geometry" />
        </mxCell>
        <mxCell id="uBUwtSgOL257emp5PNlk-40" style="edgeStyle=orthogonalEdgeStyle;rounded=0;orthogonalLoop=1;jettySize=auto;html=1;exitX=0.5;exitY=1;exitDx=0;exitDy=0;entryX=0.5;entryY=0;entryDx=0;entryDy=0;" edge="1" parent="1" source="uBUwtSgOL257emp5PNlk-8" target="uBUwtSgOL257emp5PNlk-16">
          <mxGeometry relative="1" as="geometry" />
        </mxCell>
        <mxCell id="uBUwtSgOL257emp5PNlk-41" style="edgeStyle=orthogonalEdgeStyle;rounded=0;orthogonalLoop=1;jettySize=auto;html=1;exitX=1;exitY=0.75;exitDx=0;exitDy=0;entryX=0.5;entryY=0;entryDx=0;entryDy=0;" edge="1" parent="1" source="uBUwtSgOL257emp5PNlk-8" target="uBUwtSgOL257emp5PNlk-15">
          <mxGeometry relative="1" as="geometry" />
        </mxCell>
        <mxCell id="uBUwtSgOL257emp5PNlk-42" style="edgeStyle=orthogonalEdgeStyle;rounded=0;orthogonalLoop=1;jettySize=auto;html=1;exitX=1;exitY=0.25;exitDx=0;exitDy=0;entryX=0.5;entryY=0;entryDx=0;entryDy=0;" edge="1" parent="1" source="uBUwtSgOL257emp5PNlk-8" target="uBUwtSgOL257emp5PNlk-11">
          <mxGeometry relative="1" as="geometry" />
        </mxCell>
        <mxCell id="uBUwtSgOL257emp5PNlk-8" value="body" style="rounded=0;whiteSpace=wrap;html=1;shadow=1;" vertex="1" parent="1">
          <mxGeometry x="520" y="260" width="120" height="60" as="geometry" />
        </mxCell>
        <mxCell id="uBUwtSgOL257emp5PNlk-28" style="edgeStyle=orthogonalEdgeStyle;rounded=0;orthogonalLoop=1;jettySize=auto;html=1;exitX=0;exitY=0;exitDx=0;exitDy=0;entryX=0.5;entryY=0;entryDx=0;entryDy=0;" edge="1" parent="1" source="uBUwtSgOL257emp5PNlk-9" target="uBUwtSgOL257emp5PNlk-7">
          <mxGeometry relative="1" as="geometry" />
        </mxCell>
        <mxCell id="uBUwtSgOL257emp5PNlk-29" style="edgeStyle=orthogonalEdgeStyle;rounded=0;orthogonalLoop=1;jettySize=auto;html=1;exitX=1;exitY=0;exitDx=0;exitDy=0;entryX=0.5;entryY=0;entryDx=0;entryDy=0;" edge="1" parent="1" source="uBUwtSgOL257emp5PNlk-9" target="uBUwtSgOL257emp5PNlk-8">
          <mxGeometry relative="1" as="geometry" />
        </mxCell>
        <mxCell id="uBUwtSgOL257emp5PNlk-9" value="html lang=&quot;en&quot;" style="rounded=0;whiteSpace=wrap;html=1;shadow=1;" vertex="1" parent="1">
          <mxGeometry x="240" y="210" width="120" height="60" as="geometry" />
        </mxCell>
        <mxCell id="uBUwtSgOL257emp5PNlk-10" value="meta charset=&quot;UTF-8&quot;&amp;nbsp;" style="rounded=0;whiteSpace=wrap;html=1;" vertex="1" parent="1">
          <mxGeometry x="-250" y="360" width="120" height="60" as="geometry" />
        </mxCell>
        <mxCell id="uBUwtSgOL257emp5PNlk-11" value="script" style="rounded=0;whiteSpace=wrap;html=1;" vertex="1" parent="1">
          <mxGeometry x="820" y="360" width="120" height="60" as="geometry" />
        </mxCell>
        <mxCell id="uBUwtSgOL257emp5PNlk-12" value="link" style="rounded=0;whiteSpace=wrap;html=1;" vertex="1" parent="1">
          <mxGeometry x="170" y="360" width="120" height="60" as="geometry" />
        </mxCell>
        <mxCell id="uBUwtSgOL257emp5PNlk-13" value="title" style="rounded=0;whiteSpace=wrap;html=1;" vertex="1" parent="1">
          <mxGeometry x="-120" y="360" width="120" height="60" as="geometry" />
        </mxCell>
        <mxCell id="uBUwtSgOL257emp5PNlk-14" value="meta name=&quot;viewport&quot;&lt;div&gt;content=&quot;&quot;&lt;/div&gt;" style="rounded=0;whiteSpace=wrap;html=1;" vertex="1" parent="1">
          <mxGeometry x="40" y="360" width="120" height="60" as="geometry" />
        </mxCell>
        <mxCell id="uBUwtSgOL257emp5PNlk-15" value="button" style="rounded=0;whiteSpace=wrap;html=1;" vertex="1" parent="1">
          <mxGeometry x="690" y="360" width="120" height="60" as="geometry" />
        </mxCell>
        <mxCell id="uBUwtSgOL257emp5PNlk-38" style="edgeStyle=orthogonalEdgeStyle;rounded=0;orthogonalLoop=1;jettySize=auto;html=1;exitX=0.5;exitY=1;exitDx=0;exitDy=0;entryX=0.5;entryY=0;entryDx=0;entryDy=0;" edge="1" parent="1" source="uBUwtSgOL257emp5PNlk-16" target="uBUwtSgOL257emp5PNlk-22">
          <mxGeometry relative="1" as="geometry" />
        </mxCell>
        <mxCell id="uBUwtSgOL257emp5PNlk-16" value="div id=&quot;game-area&quot;" style="rounded=0;whiteSpace=wrap;html=1;" vertex="1" parent="1">
          <mxGeometry x="560" y="360" width="120" height="60" as="geometry" />
        </mxCell>
        <mxCell id="uBUwtSgOL257emp5PNlk-36" style="edgeStyle=orthogonalEdgeStyle;rounded=0;orthogonalLoop=1;jettySize=auto;html=1;exitX=0;exitY=1;exitDx=0;exitDy=0;entryX=0.5;entryY=0;entryDx=0;entryDy=0;" edge="1" parent="1" source="uBUwtSgOL257emp5PNlk-17" target="uBUwtSgOL257emp5PNlk-19">
          <mxGeometry relative="1" as="geometry" />
        </mxCell>
        <mxCell id="uBUwtSgOL257emp5PNlk-37" style="edgeStyle=orthogonalEdgeStyle;rounded=0;orthogonalLoop=1;jettySize=auto;html=1;exitX=1;exitY=1;exitDx=0;exitDy=0;entryX=0.5;entryY=0;entryDx=0;entryDy=0;" edge="1" parent="1" source="uBUwtSgOL257emp5PNlk-17" target="uBUwtSgOL257emp5PNlk-18">
          <mxGeometry relative="1" as="geometry" />
        </mxCell>
        <mxCell id="uBUwtSgOL257emp5PNlk-17" value="&lt;div style=&quot;text-align: center;&quot;&gt;&lt;span style=&quot;text-align: start; background-color: initial;&quot;&gt;header&lt;/span&gt;&lt;span style=&quot;color: rgba(0, 0, 0, 0); font-family: monospace; font-size: 0px; text-align: start; text-wrap: nowrap; background-color: initial;&quot;&gt;3CmxGraphModel%3E%3Croot%3E%3CmxCell%20id%3D%220%22%2F%3E%3CmxCell%20id%3D%221%22%20parent%3D%220%22%2F%3E%3CmxCell%20id%3D%222%22%20value%3D%22%22%20style%3D%22rounded%3D0%3BwhiteSpace%3Dwrap%3Bhtml%3D1%3B%22%20vertex%3D%221%22%20parent%3D%221%22%3E%3CmxGeometry%20x%3D%22640%22%20y%3D%22350%22%20width%3D%22120%22%20height%3D%2260%22%20as%3D%22geometry%22%2F%3E%3C%2FmxCell%3E%3C%2Froot%3E%3C%2FmxGraphModel%3heade&lt;/span&gt;&lt;/div&gt;" style="rounded=0;whiteSpace=wrap;html=1;" vertex="1" parent="1">
          <mxGeometry x="300" y="360" width="120" height="60" as="geometry" />
        </mxCell>
        <mxCell id="uBUwtSgOL257emp5PNlk-44" style="edgeStyle=orthogonalEdgeStyle;rounded=0;orthogonalLoop=1;jettySize=auto;html=1;exitX=0;exitY=0.5;exitDx=0;exitDy=0;entryX=1;entryY=0.5;entryDx=0;entryDy=0;" edge="1" parent="1" source="uBUwtSgOL257emp5PNlk-18" target="uBUwtSgOL257emp5PNlk-21">
          <mxGeometry relative="1" as="geometry" />
        </mxCell>
        <mxCell id="uBUwtSgOL257emp5PNlk-18" value="h3" style="rounded=0;whiteSpace=wrap;html=1;" vertex="1" parent="1">
          <mxGeometry x="440" y="480" width="120" height="60" as="geometry" />
        </mxCell>
        <mxCell id="uBUwtSgOL257emp5PNlk-19" value="h1" style="rounded=0;whiteSpace=wrap;html=1;" vertex="1" parent="1">
          <mxGeometry x="180" y="480" width="120" height="60" as="geometry" />
        </mxCell>
        <mxCell id="uBUwtSgOL257emp5PNlk-20" style="edgeStyle=orthogonalEdgeStyle;rounded=0;orthogonalLoop=1;jettySize=auto;html=1;exitX=0.5;exitY=1;exitDx=0;exitDy=0;" edge="1" parent="1" source="uBUwtSgOL257emp5PNlk-18" target="uBUwtSgOL257emp5PNlk-18">
          <mxGeometry relative="1" as="geometry" />
        </mxCell>
        <mxCell id="uBUwtSgOL257emp5PNlk-21" value="span" style="rounded=0;whiteSpace=wrap;html=1;" vertex="1" parent="1">
          <mxGeometry x="310" y="480" width="120" height="60" as="geometry" />
        </mxCell>
        <mxCell id="uBUwtSgOL257emp5PNlk-22" value="div id =&quot;player class=&quot;spaceship&quot;&quot;" style="rounded=0;whiteSpace=wrap;html=1;" vertex="1" parent="1">
          <mxGeometry x="560" y="550" width="120" height="60" as="geometry" />
        </mxCell>
      </root>
    </mxGraphModel>
  </diagram>
</mxfile>
